<svg version="1.1" xmlns="http://www.w3.org/2000/svg" xmlns:xlink="http://www.w3.org/1999/xlink" width="220.69485" height="294.16145" viewBox="0,0,220.69485,294.16145"><defs><linearGradient x1="142.82528" y1="123.21511" x2="347.83818" y2="213.22563" gradientUnits="userSpaceOnUse" id="color-1"><stop offset="0" stop-color="#dcdcdc"/><stop offset="1" stop-color="#d3d3d3"/></linearGradient><linearGradient x1="128.11316" y1="154.51442" x2="321.36259" y2="239.36021" gradientUnits="userSpaceOnUse" id="color-2"><stop offset="0" stop-color="#d6d6d6"/><stop offset="1" stop-color="#c2c2c2"/></linearGradient></defs><g transform="translate(-132.24213,-12.10473)"><g data-paper-data="{&quot;isPaintingLayer&quot;:true}" fill-rule="nonzero" stroke="none" stroke-linecap="butt" stroke-linejoin="miter" stroke-miterlimit="10" stroke-dasharray="" stroke-dashoffset="0" style="mix-blend-mode: normal"><path d="M139.2662,146.57092c-5.61322,-2.46447 -3.14875,-8.07769 -3.14875,-8.07769l0.67762,-1.42564c2.10281,-3.5107 6.41468,-11.49899 9.93056,-13.28213c4.19433,-2.12722 12.41633,-0.68323 17.12681,-0.67712c9.55558,0.01241 19.57958,-0.64651 29.08829,0.84929c13.42734,2.11224 26.50093,7.16938 39.26127,11.64498c10.05284,4.40829 20.10352,8.82149 30.15438,13.2343c26.15979,11.4854 50.02281,23.20596 71.95101,41.67662c9.51851,8.01768 19.88554,18.73508 8.3753,31.41422c-3.42515,3.77298 -9.24148,4.33799 -13.61208,6.95809c0,0 -5.26804,3.13522 -8.40326,-2.13282c-3.13522,-5.26804 2.13283,-8.40326 2.13283,-8.40326c2.81268,-1.6634 12.2987,-4.20712 12.49951,-8.21671c0.35459,-7.08025 -15.44317,-16.10279 -20.32728,-19.59288c-20.82083,-14.87814 -43.90342,-24.48754 -67.27454,-34.74858c-6.66405,-2.92584 -13.32766,-5.85267 -19.99034,-8.78165c-11.86278,-4.14986 -24.05327,-8.94645 -36.53106,-10.91911c-8.93022,-1.41181 -18.38066,-0.71007 -27.35466,-0.72172c-3.81518,-0.00495 -7.97777,-2.35258 -11.42325,-0.71418c-3.03098,1.44129 -3.36029,5.81095 -5.0751,8.69601l0.02044,0.07122c0,0 -2.46447,5.61322 -8.07769,3.14875z" fill="url(#color-1)" stroke-width="0.5"/><text transform="translate(134.94234,240.60514) scale(5.25288,5.25288)" font-size="40" xml:space="preserve" fill="#c6c7c7" fill-rule="nonzero" stroke="none" stroke-width="1" stroke-linecap="butt" stroke-linejoin="miter" stroke-miterlimit="10" stroke-dasharray="" stroke-dashoffset="0" font-family="Sans Serif" font-weight="normal" text-anchor="start" style="mix-blend-mode: normal"><tspan x="0" dy="0">🌸</tspan></text><path d="M325.23258,224.20195c3.01189,5.33951 -2.32762,8.3514 -2.32762,8.3514l-4.87134,2.55834c-16.48173,4.60031 -34.00711,1.29141 -50.55955,-1.98423c-29.15744,-9.42924 -55.78055,-22.89612 -82.33652,-37.87752c-7.32005,-4.12956 -14.53699,-7.13741 -21.40357,-12.21362c-10.10834,-7.47275 -24.52383,-14.1175 -29.91972,-26.41655c-1.23811,-2.82204 -1.01799,-6.07873 -1.52697,-9.1181c0,0 -0.88513,-6.06617 5.18103,-6.9513c6.06617,-0.88513 6.9513,5.18103 6.9513,5.18103c1.60423,14.08208 16.1732,19.71608 26.60143,27.44459c6.44962,4.77991 13.14297,7.4527 20.03373,11.33553c25.66831,14.46364 51.35118,27.5626 79.50657,36.75017c14.07014,2.77381 30.09826,6.2814 44.07179,2.07016l2.24803,-1.45753c0,0 5.33951,-3.01189 8.3514,2.32762z" fill="url(#color-2)" stroke-width="0.5"/><path d="M301.92512,234.96657c-1.9386,-5.81581 3.87721,-7.75442 3.87721,-7.75442l2.87524,-0.89347c8.83722,-4.41293 18.12457,-7.31005 26.19981,-13.0259c0,0 5.02222,-3.51555 8.53777,1.50667c3.51555,5.02222 -1.50667,8.53777 -1.50667,8.53777c-8.69726,6.03146 -18.32559,9.23036 -27.74771,13.94786l-4.48124,1.55869c0,0 -5.81581,1.9386 -7.75442,-3.87721z" fill="#c6c7c7" stroke-width="0.5"/><path d="M153.00506,125.43458c3.98961,4.65455 -0.66494,8.64416 -0.66494,8.64416l-2.72563,1.61615c-1.43043,3.0652 -2.86085,6.1304 -4.29128,9.1956c0,0 -2.59246,5.55527 -8.14772,2.96281c-5.55527,-2.59246 -2.96281,-8.14772 -2.96281,-8.14772c1.43043,-3.0652 2.86085,-6.1304 4.29128,-9.1956l5.85693,-5.74033c0,0 4.65455,-3.98961 8.64416,0.66494z" fill="#c6c7c7" stroke-width="0.5"/></g></g></svg>